<mxfile host="Electron" modified="2025-07-02T14:42:37.149Z" agent="Mozilla/5.0 (Windows NT 10.0; Win64; x64) AppleWebKit/537.36 (KHTML, like Gecko) draw.io/24.1.0 Chrome/120.0.6099.109 Electron/28.1.0 Safari/537.36" etag="AgFDFX1jdVZ4KpyI6_3K" version="24.1.0" type="device">
  <diagram name="第 1 页" id="m4WlvHM6WWsqlOekGDqn">
    <mxGraphModel dx="250" dy="661" grid="1" gridSize="10" guides="1" tooltips="1" connect="1" arrows="1" fold="1" page="1" pageScale="1" pageWidth="827" pageHeight="1169" math="0" shadow="0">
      <root>
        <mxCell id="0" />
        <mxCell id="1" parent="0" />
        <mxCell id="K8trbJLzHtX-AJA_kqR3-7" style="rounded=0;orthogonalLoop=1;jettySize=auto;html=1;exitX=1;exitY=0.3333333333333333;exitDx=0;exitDy=0;exitPerimeter=0;entryX=0;entryY=0.5;entryDx=0;entryDy=0;" edge="1" parent="1" source="K8trbJLzHtX-AJA_kqR3-1" target="K8trbJLzHtX-AJA_kqR3-5">
          <mxGeometry relative="1" as="geometry" />
        </mxCell>
        <mxCell id="K8trbJLzHtX-AJA_kqR3-8" style="rounded=0;orthogonalLoop=1;jettySize=auto;html=1;exitX=1;exitY=0.3333333333333333;exitDx=0;exitDy=0;exitPerimeter=0;entryX=0;entryY=0.5;entryDx=0;entryDy=0;" edge="1" parent="1" source="K8trbJLzHtX-AJA_kqR3-1" target="K8trbJLzHtX-AJA_kqR3-2">
          <mxGeometry relative="1" as="geometry" />
        </mxCell>
        <mxCell id="K8trbJLzHtX-AJA_kqR3-9" style="rounded=0;orthogonalLoop=1;jettySize=auto;html=1;exitX=1;exitY=0.3333333333333333;exitDx=0;exitDy=0;exitPerimeter=0;entryX=0;entryY=0.5;entryDx=0;entryDy=0;" edge="1" parent="1" source="K8trbJLzHtX-AJA_kqR3-1" target="K8trbJLzHtX-AJA_kqR3-3">
          <mxGeometry relative="1" as="geometry" />
        </mxCell>
        <mxCell id="K8trbJLzHtX-AJA_kqR3-10" style="rounded=0;orthogonalLoop=1;jettySize=auto;html=1;exitX=1;exitY=0.3333333333333333;exitDx=0;exitDy=0;exitPerimeter=0;entryX=0;entryY=0.5;entryDx=0;entryDy=0;" edge="1" parent="1" source="K8trbJLzHtX-AJA_kqR3-1" target="K8trbJLzHtX-AJA_kqR3-4">
          <mxGeometry relative="1" as="geometry" />
        </mxCell>
        <mxCell id="K8trbJLzHtX-AJA_kqR3-1" value="管理员" style="shape=umlActor;verticalLabelPosition=bottom;verticalAlign=top;html=1;outlineConnect=0;" vertex="1" parent="1">
          <mxGeometry x="10" y="190" width="30" height="60" as="geometry" />
        </mxCell>
        <mxCell id="K8trbJLzHtX-AJA_kqR3-2" value="查询学生信息" style="ellipse;whiteSpace=wrap;html=1;" vertex="1" parent="1">
          <mxGeometry x="160" y="150" width="120" height="60" as="geometry" />
        </mxCell>
        <mxCell id="K8trbJLzHtX-AJA_kqR3-3" value="查询学籍状态" style="ellipse;whiteSpace=wrap;html=1;" vertex="1" parent="1">
          <mxGeometry x="160" y="230" width="120" height="60" as="geometry" />
        </mxCell>
        <mxCell id="K8trbJLzHtX-AJA_kqR3-4" value="系统维护" style="ellipse;whiteSpace=wrap;html=1;" vertex="1" parent="1">
          <mxGeometry x="160" y="310" width="120" height="60" as="geometry" />
        </mxCell>
        <mxCell id="K8trbJLzHtX-AJA_kqR3-5" value="添加学生信息" style="ellipse;whiteSpace=wrap;html=1;" vertex="1" parent="1">
          <mxGeometry x="160" y="70" width="120" height="60" as="geometry" />
        </mxCell>
      </root>
    </mxGraphModel>
  </diagram>
</mxfile>
